<mxfile host="app.diagrams.net" agent="Mozilla/5.0 (Windows NT 10.0; Win64; x64) AppleWebKit/537.36 (KHTML, like Gecko) Chrome/134.0.0.0 Safari/537.36" version="26.1.1">
  <diagram name="第 1 页" id="B5Q06Lf8ayGFP2nBLEjW">
    <mxGraphModel dx="1050" dy="522" grid="1" gridSize="10" guides="1" tooltips="1" connect="1" arrows="1" fold="1" page="1" pageScale="1" pageWidth="827" pageHeight="1169" math="1" shadow="0">
      <root>
        <mxCell id="0" />
        <mxCell id="1" parent="0" />
        <mxCell id="3KW4BId67RAqC139ysHB-5" value="" style="shape=flexArrow;endArrow=classic;html=1;rounded=0;entryX=0.004;entryY=0.683;entryDx=0;entryDy=0;exitX=0;exitY=0.5;exitDx=0;exitDy=0;entryPerimeter=0;strokeWidth=2;" edge="1" parent="1">
          <mxGeometry width="50" height="50" relative="1" as="geometry">
            <mxPoint x="386.5" y="330" as="sourcePoint" />
            <mxPoint x="400.452" y="169.2422899999999" as="targetPoint" />
            <Array as="points">
              <mxPoint x="290" y="330" />
              <mxPoint x="290" y="170" />
            </Array>
          </mxGeometry>
        </mxCell>
        <mxCell id="3KW4BId67RAqC139ysHB-6" value="&lt;font style=&quot;font-size: 20px;&quot;&gt;智能体&lt;/font&gt;" style="text;strokeColor=none;align=center;fillColor=none;html=1;verticalAlign=middle;whiteSpace=wrap;rounded=0;" vertex="1" parent="1">
          <mxGeometry x="413.25" y="74" width="86.5" height="30" as="geometry" />
        </mxCell>
        <mxCell id="3KW4BId67RAqC139ysHB-8" value="&lt;font style=&quot;font-size: 16px;&quot; face=&quot;Times New Roman&quot;&gt;State&lt;/font&gt;&lt;font style=&quot;font-size: 20px;&quot; face=&quot;Times New Roman&quot;&gt;&amp;nbsp;&lt;/font&gt;&lt;div&gt;$$S_t$$&lt;/div&gt;" style="text;strokeColor=none;align=center;fillColor=none;html=1;verticalAlign=middle;whiteSpace=wrap;rounded=0;" vertex="1" parent="1">
          <mxGeometry x="210" y="230" width="60" height="30" as="geometry" />
        </mxCell>
        <mxCell id="3KW4BId67RAqC139ysHB-9" value="&lt;font style=&quot;font-size: 16px;&quot; face=&quot;Times New Roman&quot;&gt;Reward&lt;/font&gt;&lt;font style=&quot;font-size: 20px;&quot; face=&quot;Times New Roman&quot;&gt;&amp;nbsp;&lt;/font&gt;&lt;div&gt;$$R_t$$&lt;/div&gt;" style="text;strokeColor=none;align=center;fillColor=none;html=1;verticalAlign=middle;whiteSpace=wrap;rounded=0;" vertex="1" parent="1">
          <mxGeometry x="310" y="230" width="60" height="30" as="geometry" />
        </mxCell>
        <mxCell id="3KW4BId67RAqC139ysHB-11" value="" style="shape=flexArrow;endArrow=classic;html=1;rounded=0;entryX=0.973;entryY=0.69;entryDx=0;entryDy=0;entryPerimeter=0;exitX=1;exitY=0.5;exitDx=0;exitDy=0;strokeWidth=2;" edge="1" parent="1">
          <mxGeometry width="50" height="50" relative="1" as="geometry">
            <mxPoint x="526.5" y="330" as="sourcePoint" />
            <mxPoint x="509.94900000000007" y="169.97469999999998" as="targetPoint" />
            <Array as="points">
              <mxPoint x="630" y="330" />
              <mxPoint x="630" y="170" />
            </Array>
          </mxGeometry>
        </mxCell>
        <mxCell id="3KW4BId67RAqC139ysHB-13" value="&lt;font face=&quot;Times New Roman&quot;&gt;&lt;span style=&quot;font-size: 16px;&quot;&gt;Action&lt;/span&gt;&lt;/font&gt;&lt;br&gt;&lt;div&gt;$$A_t$$&lt;/div&gt;" style="text;strokeColor=none;align=center;fillColor=none;html=1;verticalAlign=middle;whiteSpace=wrap;rounded=0;" vertex="1" parent="1">
          <mxGeometry x="640" y="230" width="60" height="30" as="geometry" />
        </mxCell>
        <mxCell id="3KW4BId67RAqC139ysHB-14" value="&lt;font style=&quot;font-size: 20px;&quot;&gt;环境&lt;/font&gt;" style="text;strokeColor=none;align=center;fillColor=none;html=1;verticalAlign=middle;whiteSpace=wrap;rounded=0;" vertex="1" parent="1">
          <mxGeometry x="413.25" y="387" width="86.5" height="30" as="geometry" />
        </mxCell>
        <mxCell id="3KW4BId67RAqC139ysHB-16" value="" style="shape=image;verticalLabelPosition=bottom;labelBackgroundColor=default;verticalAlign=top;aspect=fixed;imageAspect=0;image=data:image/png,iVBORw0KGgoAAAANSUhEUgAAAgAAAAIACAYAAAD0eNT6AAAAIGNIUk0AAHomAACAhAAA+gAAAIDoAAB1MAAA6mAAADqYAAAXcJy6UTwAAAAEZ0FNQQAAsY58+1GTAAAAAXNSR0IArs4c6QAAAAZiS0dEAP8A/wD/oL2nkwAAAAlwSFlzAAAOxAAADsQBlSsOGwAAIABJREFUeNrt3Q9sHNd94PHd2eWKKIQe0SNy/NcLr6c0SiunskhFciNf6IZG5KvUyo1zlRG5po/cP6Yt2EZsOK7jswTHZxu2YLuJmf3HmD7LsAwrsAwrZwWWYeasNEpFKkyjIrorCxAFRbEHptA5DEDtn9n7/aSRI9uSTIlvdmdmvx9gMEv/mdn9zZt5vzfz5r1QCAAAAAAAAAAAAAAAAAAAAAAAAAAAAAAAAAAAAAAAAAAAAAAAAAAAAAAAAAAAAAAAAAAAAAAAAAAAAAAAAAAAAAAAAAAAAAAAAAAAAAAAAAAAAAAAAAAAAAAAAAAAAAAAAAAAAAAAAAAAAAAAAAAAAAAAAAAAAAAAAAAAAAAAAAAAAAAAAAAAAAAAAAAAAAAAAAAAAAAAAAAAAAAAAAAAAAAAAAAAAAAAAAAAAAAAAAAAAAAAAAAAAAAAAAAAAAAAAAAAAAAAAAAAAAAAAAAAAAAAAAAAAAAAAAAAAAAAAAAAAAAAAAAAAAAAAECVhAkBEDyDg4PLi8ViTzgcXiHLH1UqlQ75xy2yNDnr6Hn/+Zwsp2SZlf9uVv77SVn/LBKJHE6n01NEEyABAOBRO3bsiM7Ozm6QivtWWXrlH3UY2vS8LIdleUWWfdlsdo5oAyQAAGosHo+vlhZ7v3zcKkuzy7sraTIg+3v29OnT+0dGRhY4AgAJAIAqtvZPnjy5xbbtO6Qy7qnR15irVCppTQa4KwCQAABwv8W/VSrdB+XjKo98pTlNAiKRyDNDQ0PzHCGABACAQf39/Sukkv2OfOz16FecleX2bDa7j6MFkAAAWCK93X/ixImHpZV9t/y53Adf+YBt2/F8Pj/N0QNIAABceav/tZB3bvcv1nylUrkxl8sd5CgCJAAALkM8Ht8krf6XfdLqvxB9Y+Chtra2p3bs2FHiiALeEyEEgLckk8lvyEqf9zf6+GdYsvTOz8+vueqqq16bmJggCQBIAABcTCKReFpWf+1UoEHw+5FIZP26deteO3LkSIEjDJAAAPiQeDz+nXA4fGcAf9rv2batdwK+x50AgAQAwEcr/1SAf+IK7gQAJAAAzpNIJO6Wyv8bdfBTz9wJ2Lx58yujo6M2Rx6oLYsQALWTTCZvktWTdfSTN548efIxjjzAHQCgbulEPrL6viyxOvvpf9zV1fWz8fHx45QCgDsAQF3p6+trDIfDr4b8/arfUryYSCRWUhIAEgCgrsRisYdltaKOQ6ADHL2oQx1TGgASAKAuJJPJblndSyRC3TMzMynCANQG2TdQfd+q0bl3KhwOH6pUKsdk+aX8Paf/UP7Zclk+Kf9M70j0hqo7/PAjAwMD+5g8CCABAAItkUjcKRXt+iruUivWYVkOtrW1HV7MuPw6CZFlWbdKUrA15P5jiqZIJPKIrG+jdADVxWRAQJXo8+6ZmZlfhKrz7H9Slvuk0t+/lMl4ksnkNklY7g+5OyNhqVwuf2Z4eHiSUgJUD68BAlXyqU996q+kVf1fXd7NglTYjxeLxZulQj221AF3xsfH/37z5s25995771fy3f845M4ri5Zsu+3o0aOvUkoA7gAAgZNIJH4qq9Uu7mJaWtLXudWSTqVSnZJcvOzSI4ySZVmfSqfTU5QUoDp4CwCoTuW/weXK/5hUoNe6eRtdK+fTp0/fIAnAqAubj8p2t1FSABIAIGjucLPyl+W6arSeR0ZGTrW3t18fDof3m962JABJHSCJogKQAACB4FRqW1za/Ky0/Ddns9m5av0e7VTY2tp6oyQBhw1vuqOxsXE9JQYgAQACIRaLbQy5NOSvtJrjtXhurkmAJAA3h5yxBAz+nlspMQAJABAUX3Zpu/lcLre/Vj/KSTzihhOAjQwPDJAAAEGx0YVtnpLlgVr/sGw2u09WBwxusmV2dpZJggASAMDfEolEs6yaXdj0zmo+9/+YVvsuw9sjAQBIAAB/C4fDPS5sdj4ajea98htzudxBkx0CJQH4PCUHIAEAfM2lymzf0NDQvJd+p23b3zO4uVWUHIAEAPA747ezJal4xWs/MhwOj8iqZGhzJAAACQDge52mN1gsFg967Uc6/RGOGdpcCwMCASQAAAnAB02OjIwsePGHVioVY8MQNzY2tlB0ABIAwJecVqzpluwxr/5ey7J+Zmpbtm1zBwAgAQD8yY1WbDgcnvTq761UKrMGkwnuAAAkAADOq2R/7eHvVuIIASQAAACABACoPyXhwmb/jVd/bzgcZgx/gAQAQEdHx6wLm+30cAJg7Lm9bduzlCCABADwJZ0yV1amR+xb7dXfW6lUPmkwAZinBAEkAICfmW7Jdvb19TV59LeaSk7mXbp7AoAEAPBtAhBqaGjY4tHfusLQdo47d08AkAAA/lSpVIwP3GNZVtJrvzOZTHbLytSdiUlKDkACAPjdD11IKtY7Fa6XEp0vG9zWOMUGIAEAfC0SibgydK9Ukg965Tfu2LFDX//bZvC3HaLkACQAgK+l02lNANzo0LYlHo9v8sJvPHHixE2y6jC0uflSqTRByQFIAIAgcKVCC4fDuYGBgY5a/rDBwcHl8j2eNLjJfV6d7RAgAQBwuRX16y5tusWyrJxzC74misXi/QZb/3r7/xVKDEACAARCJBLZJyu3XmvbODMz83wtkoBUKtUjyc3XDW5yXhKKg5QYoErXJkIAuOvIkSPzXV1dfxwy9578h332vffe+4PPfvazb0xMTFTl/Xnn0YPe2fgdg5v9H8PDw69RYgDuAACBUalUnnNz+9ISvykWi72VSCSa3f4t/f39KyzLejdkeF4C2eazlBSABAAIlPb29gOymnJ5Nxtk+Xkymdzm1g70tn8kEvmx6cpfEqRR540JAFXCIwCgCkZHR+2urq6yfPzPLu9quSx/IfvqleXH4+PjcyY2qr39r7766l1SUf+Nsw+zF6JI5LaxsbEpSgpQPWFCAFSHdtSbmZn5x1D1pvQthcPhA7LsamlpOXQl4+v39fU1xmKxlHy8y8XvfTCbzV5PCQFIAIDA0tvz0op+sQa7Pi77HbYsa7S1tXXi45KBeDzeK4nDn8tHHeSnxc0vZtv2Nfl8/jClAyABAAItkUgckVUtx/Kfl0Ur3B9JUjAlFX1UlhapiNtlrd9Lp/WtymuFsv90Lpe7nVIBVF+UEADVJa3w+6SyfaeGX0Gf4ffqIhX+uYo4dO5zFc0Wi8UHKBFAja5FhACornQ6PSqrPfUeB0k6bhkZGTlFiQBIAIC6EY1G47I6XschyOdyOUb9A0gAgPoyNDQ0b9v2bfKx7ia+CYfDhwuFwnZKAVBbjAMA1MjRo0enu7q6/kU+/lkd/exZSXyu/+53v/uvlACABACoW+Pj40clCdDhez9XBz/3lLT+b8jlcsc58gAJAEASMD7+piQBOrnOmgD/zJK0/L8olf/fccQBEgAAv0kC3lizZk2L8x5+0Gg/B638/5YjDZAAAPiQo0ePfr+rq6tJPq4P0M+atSzrxkwm8784wgAJAICL3wn4wZo1a34dDof/JOTzt3S0t792+Mtms3/PkQVIAAB8/J2Av5Uk4MdSgerbAY0+/Rl7CoXCjfT2BzycpBMCwJsGBwdbisXiy5II9Pjoa8/L970vk8mkOYIACQCAJUgkEgOyelKWJi9/z0qlMiqV/+3ZbJbX/AASAACGkgAdK+BBWe4MeW8Sr1NS+d+ey+X2cKQAEgAALkilUp22bSf1owfuCMzK8kQ0Gs3r0MYcHYAEAIDL+vr6mmKx2Db5eIcsK6u8+4lwOLzr9OnTe0dGRhY4GgAJAIAaSCaT3bZt/7lUypvkz1Uhdx4R6HP9V8rl8u7h4eFJog6QAADwkMHBweWlUuld+bja0Cb1Nv91dOwDgofpgIEA0WfxlUrllMFNLlD5AyQAAACABAAAAJAAAAAAEgAAAEACAAAASAAAAAAJAAAAIAEAAAAkAAAAgAQAAACQAAAAABIAAABAAgAAAEgAAAAACQAAACQAAACABAAAAJAAAAAAEgAAAEACAAAASAAAAAAJAAAAIAEAAAA1FiYE8LqBgYGOcDjcHIlEmsrlcov8o0aicomTOhy+X1YrDW1u1rKsm4nq4hSLxemGhobSwsLCqZGRkVNEBCQAwMdIJBLNlUpltVReWnF9WpbVTiXWTHTgY5OyHJNyfcq27X+QzwclSTguycECoQEJAOrS4OBgi7TmN0il/wX5c6MsK4gK6iwxGJXE4IeRSOTg0NDQLCEBCQCC3MpfKRe8m5xKf0OIW/nAOWNyXrwiycCBdDp9jHCABABBqPT1Fv5Wqfi/Khe4bvkcJSrAJU3JubJbzplns9nsHOEACQB8JZVKrbJtOykf+2RZTkSAy6b9BPbJ8pwkAocIB0gA4GnJZFJb+Q9LC2YjrX3A0IU6HD4sq12ZTGYv0QAJADwlHo/3yupBuVD1EA3ANdpX4IFcLneQUIAEADWVSqU6y+Xyk9q5j2gAVaMJwPZsNnucUIAEAFW1Y8eO6MzMzL3a6g/xjB+ohZIsT0Wj0UeHhobmCQdIAOC6eDyuA/a8HDI32hyAKzddqVTuy+VyewgFSADgZqv/EfmoLX86+AHesq9QKNzGEMQgAYBRziA+z0tLYz3RADzruG3bt+Xz+cOEAh8nQgjwcZLJ5DZZvS7L7xENwNOaJVHv6+rq+tX4+DhJALgDgCvj3PL/RuhsRz9u+QN+uriHwyOnT5++nYmHQAKAyzI4OLi8VCq9Gjo7UQ8Af5qIRqM3MNkQLoRHAPiIvr6+Jmk9vC0f/xPRAHytxbbtratXr37jpz/96b8SDpAA4KJ0YB/Lst6Rj58lGkAg/Lac0/9lzZo1bx89epQ7ASABwIUrf2ktaOW/gmgAgbI8HA5v7e7ufnt8fHyGcIAEAO8bHBxsKZfL78rHTqIBBFKjLHon4AfcCYCiEyDOPPOPxWJvycduD30tHcxkSpbjzvr/VSoVvWjNRSIRhj2FZ0kirW/MdEiLu0nWn5Ryq581sV7lVMK1Nm1Z1rXpdHqKo0UCgPqu/Budyn9DrSt8uUgesm37h3JxGm1tbZ3YsWNHiSOEoNA3a6R862M2HUzrC7L0aKJQo68zFY1Gr+HtABIA1LFkMqmj+/XVaPfzUunvlf2/3tbWtp8KH/UmlUr1lMvlL8p5oINtdVZ592Ny3l3DeUcCgDoUj8fvlQvPkzXY9THZ73ORSGQ3s5gB7w+6tUmS4bvk3Oip4q7zkgTcThJAAoA6kkgktshKB/qp5gh/h2R5QC44h7ngABc2MDCwXpLjpCQD26p0fm7PZrPfJvIkAKiPC0yHZVlH5GNLlXY5Jq2a2zOZzBjRBxanv79/hSQCeodui8u7KkmysTaXy00Q9frCa4B1Rm81/vrXv35TPq6swu60J/92afFv37Vr1zTRBxZPR+4bHx9/Zc2aNeOSQOuonL/t0q4s2f6GdevWvXjkyJECkScBQEB9+tOf/mvJ9v+qCrs6UC6Xb8zn8wdHR0dtIg9cmaNHj/4fqZxzct62yZ+rXdrNJ2zb/i1JOH5AxEkAEEA60p9cRF4Iufsust5O/O/t7e3Jp59+eo6oA0unLXOpnF/v6ur6mfzZK8tvubCbbtn+O7KffybiJAAImDVr1jzvYgtCaYV/Qy6Xe4FWP2CeVM7H165d+6ok2ZoEfMLw5i1Z/mTz5s3Pcf6SACBAksmkTuv7TRd3oSP2fSmbzR4l2oB7xsbGTunzetu214TMz9vR9Ktf/aoiicYokSYBQABoxz85qV+Xj80u7eKYLF+Wyv840Qbcp48Errrqqu9FIpFuF5KA9WvXrn1JEw0iHWwWIQi+kydPfj3kXq//SVmuo/IHqmtkZGShUCjcGDo7voZJjbZtP02ESQDgc4lEollHF3Or8pcLhVb+dPYDapQERKPRG1xIArbItWMDESYBgL/dGXLn1v8py7L0NT/e7wdqyBlOW+8ETBre9MNElwQAPqUz/cnKldZ/OByOp9PpY0QZqD29Cyfn5M3yccHgZnvj8fhqoksCAB9atmzZvbJqcmHT+Uwms5cIA97hDLX9gOFE/2tElgQAPmz9u/Ts/1ihUNhOhAFP3gl4Rirt/QY3uVUHECOyJADwkYaGBp1AxPSz/5Jt23HteESEAW8ql8u3y2rW0Oaisr1+okoCAB+RVsAdLmzzmXw+f5joAt7ldMx9yOB5f6fTnwgkAPA6p+OO6Vd4piORyE6iC3hfNpvNy8rU9NtNy5Yt20RUSQDgj9Z/vwvbfNR53QiAHy7ulnWfqW1VKpWvElESAPhDj+HtTZ4+fXqEsAL+kU6nR6XiHjW0uU06qBhRJQGAh8lJqkP+mh7291k6/gG+9Kih7UQlmeAxAAkAvCwcDt+kJ6vBTZ4qFAq7iSzgP7lc7mDo7EydJq4tXySiJADwMNu2jZ6kkvXvkdY/s4IB/vWCoe1s0plFCScJADxocHBwuWTppnv/Z4gs4Gv6RoCJDrxNJ0+eZGhgEgB4UbFY7AmZvf0/mcvlJogs4F/OPAGjJrZVqVR6iSgJALxpneHtjRJSIBC+bygB+BKhJAGANxnt/W9Z1kuEFPC/SCSyT1alpW4nHA6vIpokAPAgwyfn/MLCAsP+AgEwNDSkcwOYeBugeXBwsIWIkgDAQ5wZu4zdAZBk4hjv/gOBMmpiI8VikbsAJADwEtu2O0xur1KpHCOqQHBIUv9DQ9tZSTRJAOCtk7vF8PbGiSoQqGuEkcmBpHHwh0STBAAeIiel0dtycrE4TlSB4GhpadFpgpc8HoBcG1YQTRIAeEu7yY3RARAIlh07duhbANMGNtVENEkA4CGGHwHM0QEQCKQpA9vgLQASAHiJbdvLDW6Osf+BYDYUZkkAQAIQvBPbZAIwS0SB4KlUKiUDm4nqvCNEkwQA3tFscFtzhBMIpBMmNmLbdjOhJAFAAIXDYR4BAEDAMbczAieRSDRXKhWdtnS1JDP/VtbNsj5X1ufk3/1S1scty5pIp9NTRIzyImVhlbRqV0nZ+HfaofZceZG/T8nnM+VFB8dqa2ubdHrTAyQAQK3p88hyubxFLtBfkD83ytIhF+0P/Dfy7z7y/8kFXy/++l70flneLhQKe0dGRrj7EXBSgUdnZmY26cx2Uk60vHRqWVDnys355eX8z/L/zSeTyVH5Z2/Ln7t1ql0iChIAoMri8bi28PtLpdK20JW/m6ydmbbqEovFviMJwV5pDWbS6fQoEQ5keblVKnEtL80fThIXW16k8t8ka12elmTgsPz9RFtb237uDIAEAHDZwMDAerl4PyZLjwvnw1ZpDW6VRGBMLuw7c7ncfiLub1JJd8uxfFA+bjG9bdnuelm9JknFtJSZndlsNk/E4RdhQuBPOiVnsVjs1imA5SL0SVlvc1qzSy8U4fBIJpO5zWu/2Xm2/4h8v4EqJq8HyuXy9uHh4UlKne/OkeVyjjxZ5fJyXPZ3j5w/B7wYEzmHdsjqYQOb0kTnJ3I+TjU0NBweGhqap8SRAMAlfX19jXKi9crF5fPyZ68s3a4VCg8mANKKu0kuNt8JmX3dcbFKEpOdra2tj3Ob1x/i8fgmOWbfko+dNfoKO9va2r7ptfJiMAH4sEMS7x/Ytn1Ykq5DjCRKAgAzlf4GfW4ZOtu5rSqVn5cSAI1BLBbLycdtHvg6Y3KBuzGfz09TOr3J6eD3tHxMhWr/iHNClpuz2axnJtZyMQE435xcQ/TR2SunT58eJRkgAcBl6O/vXxGJRO4Pne1oVPVhN72SAOgtf1m96ebdjitwSpKAGyQJYLIkj9HHYqVS6Q3KS80TgPPpqKJ7y+XyszxG854IIfAOvW25du3aXVIBPyV/fi5k6Jn+FSQAE+Pj46/XOBbaY1tftfoDjx2mRu1v0d3dLSEa54LmEalUqlMqmXcpL5fW1dXVI6ueKu5Sr2GfsyxrUPb9B3J9++XY2NgUJZYEAA7tpSwnx+tyobhX/vz9UI1vXdY6AZBWykr5Du/IxzaPHjI9PjeRBHin8pdWtpaXTsqL5xKAc3TUWe2w3LdmzZqez33uc+OSCPxfSi8JQN0aGBjokBNyWD5qi7/DK9+rlglAX19fUyQSeUs+/nuPH74zF3Vp0bzOhax2nEGg3nYSZ8+XFznffyjn1j/XYQJw/vWlUxKBhCREv7du3bqfHDlyhDcIaoS5AGpAOypJK/frlmX9Qk6Gm0KMx/B+XBoaGl6Tjyt98pUbpeX5piZyHL3aKJVKL2rL0i/lRZaXKS9nEyK9GyDH7xfJZDKl5z4hIQEIvFQqtWpmZubH8vGxUI2e8XvVyZMn3Rjcx20dkUjkO1zAqk+S6DtDLgzu43Z5kcT/eX27hSN4RpO+3ivXxHf0UQ7hIAEI8gVrQFqMWvl3E42PxGaDXAju9uN316FhJXn5OkexerSTqJNE+1FvLBajvHzQBrk2/lyvkYSCBCBQ9DllMpl8Xj7maPVfOD6yejXk40chkgQ8rJ0XOZru07st4XD4RZ+fSw9SXj5Cj2dO4vIt7pCQAASCdmorlUrv6PMuonFhxWJRB21p8fnP0Geaj3A03TczM6Pn0qoAlJfvcDQv6M6GhoY3nXFAQALgT9rZJxaLHQlxy/+i9CSX1tzDQfgt2qFTJyriqLrHuVv0YEDKS4+O/cFRvXBsZPUWSQAJgC/pM0rLsrTyX0E0Lk5aQXeFAvRYJBKJPMhRdU+pVNJnxJ0BqugepgPpRWk/jx/TOZAEwHeVv5zY+i57C9G4OH3OJ3FKBSyh2cQFy1XJgP2e7tnZ2Q0c1otaYdv2uzo8OqEgAfA8ZxQ7rfy5dfUxGhoatrgcpwU5FoelUt6r8xvI37tlOaT/3M3fVS6X7+founJuaXlxs+Ocztw3ca68OGXmoCyuDlQj+7uVo3tJ+qrtWyTW5nHrySBngI83qPwXx5nl0A063OoThUJh94VmInNmWdwq+/9ayIXOZLLdXr2ty9TBxivKL0ls3dj0tGz72WKxmJfycurD/9KZYVCf1Wt52eDC77pJyuQ9F9o33qfDPb8xODh4zdDQECMHkgB4i/b2tyxLR7HjVtUiODO39bqw6Qfa2tqeulTl6yQF2rob0VHI5AL8LcPnwgqpMNY7dxtggFMJb3Vh049LeXnoUuXF+Xf7dHHuQrwcOjuqnynLly1bpgnGbo70Ja2Sa0ZOjsctJNdm8AjAkFgspu+x09t/kaS11WM6AZXW4e3ZbPbxy7k4ZDKZtCQAt4TO3v41qZejbLCJPj2t51aT6WRRyssDl1Ne5L/XROD6kPnHSF/kKC/KVkkEed2WBMA7pBX5DS74l11Zf97wJvNamV/J/5jL5fbI6iHD3+fzHGWj5cX0rfe8JotX8j/K/3dIksbbTH4Z2R4dARfv6/F4nOstCUDt6XvfOgpcDXZ9yLbta2Q95dMLusm7JQvRaHRJFXihUHhGVrMGv9Nqzg6j5aXL4OZK5XL5iaVswEkaJwx+pxXOGAe+INe8q2W1XZYDIfN3zxZTHl5kUiUSgJrSE9ayrGoPYTsrJ9/NbW1t1+Xz+cN+jZ38hlUGLwZ7hoaGllR5a78A+U55gz+xmQuUUasMlr19w8PDkwY29ZzJH1gqlXyTNEYikVPZbPbbstwgDZH/IP9I76ZUsxNji1x7H+O0IAGoGWlFaOexal7kvy0t1c9o68PPnWCcitFka+f7hi5qr5j8ndFolA6h5hh7/U8qDiPHWc7FvSZbv5KY+LK8SENkWvtSyMdPSTL+VBXvCGxLJpM3cWqQAFRdKpXqqeL4/vNyYn1FTrLtQXhVSH6L0dckpeVk5FZsOp0+ZviCzuugBugbNiGDd9lMlRfnXJwy+FN9XV7k+jSXyWTuk4bRZ3T8jWrsU86xp53yARKAql2QGm3bzlVpd2NyQl0tJ9beoMRPWtpGT9jf/d3fNXkRnja1ISkjzPxoQGNjo2fLi1RAxsqLVJqBKC/6eKW1tfVa+T3aL2fB5d3pfCt3c5aQAFSNFDgdj9z123VycUkXCoVrDT2vDCzeCQblxXsxlkbLNyUJvk7+nHN5d3dxF4AEoGqtf1m5PtSrPktrb2/ffqGR7PxOLgolw8fE5MlPq91jSsKr5SUorXa3aEdly7I0CXCzEdMkjbKHiTYJQLVa/253/LtHn6UFtaUiF4Rpk9tbtmyZkbsxTsVg8jnsNGeMkUrEk+XFsYLycmnat0bO+etdTgJSvHVDAhCE1v892Wz2mUAXOsvSW4LGkhvbtnsMJXc9Jn9nJBKZ5awxxlgsK5WKkUFkdNbPkMHRCeV7Bba8SBIwJef9jSH3JlZqlO1v4zQhAfBt618uAN8MeuWvnMk8pkxtLxwOf9XQpu4w+DNLCwsL9N0w55jBbSV1bgED5c5kedFE9niQD6Dzls0tLu7iLqeRBhIAdwqYi9ve3d7evrNeAinJjslR1FZLa2xJE8XoiI4hs8M5Hw9i/41akcrWZHnpPHHixJJai87UtCZbnKcMv83iSTqXgjNWgBtali1b1sPZQgJgnL73H3Kv5/+Btra22+qpd7JcBMYNb+9bOsPglfy/+v9ZlpUz/H3GOGuMto5Nl5cn+/v7r+h81rsH5XL5+ZDBGQE1Ia6X87+1tVUHDXLl/JA43srZQgLgxgUo6dKmZ2Xb8Xp7NUkq3P2GN9lcKpXedVpmi5ZIJJrlYq7TOK8yXF5+wFljTrFYND3mfHMkEnlHystlHXftKHry5MnXJIEw2tKU7dVNedFrnc7cGXJnjIAtfppTgQTAB5wCtcWlivBm072c/cB5Hmj6GfkKqXh/LpX63R/3LFBbcc5jg59Kq2G94e+x4FRYMERH3ZPjdMjwZjukvPxYZ/P8uFcDz5WXWCym5WWTCz9xXz0dz0wmMyZJwLdd2HSjnHsMD7xIUUKwqNbHJimsxjuXyDZHpCIcrePQviSL6fd3NVl7Wi7UD8qFXe8y/ESWKYn1grT0tbxrJ851MzMzekwjSfLxAAAWAElEQVTd6tC5LwhDNnvQC7L0mC4vUqE/IuXlfkkcz5QX+XsyEomc6a0uZaZFp66W8rJR1q48AtRhc6VCPF5vB1PirDMypkKGx96QeP6l5oycLiQApnzZhW1qi+a+eg6qZVkj0gJ70KVy2OzM1dDnXGz0wlCtC9swp4x5DQ0Ne0ul0tMhg6/efShx1DtCW7WcSLk8V5lQXlyicwdI0rXLhUbAer1jw4iPi7gGE4JFZZQbXNjsQ3oC1HNc9d1giW3QbpUfb29vH+WsMc95fXR3wH7WKWdWwbokiZZOwW26om46ceLEKs4YEoAlkwxVK/8Ww5udjkajI0T3jEC9+iituZ20PNwj582jIfcnmKmmJ+r5cZHT/8l0h2C9u7ies4UEwIReF7a502nN1D3tDBQKTgeoY8VicR9H1dW7ADpaXjogP2dOWv/pej+m4XD4ey5sdh1nCwmAFwvSnLRi9hDWD2Tr94TcGyK0mr9jO4P/VOUugE4z6/thc7UPEJ1FzwyZrUlzyXBsV3CmkACY0G14e3to/X+Q0xfgCZ//jN11/kZHNe8CzEt58XsH2kPt7e27OZrv9+04aHiz9AEgAVgaZ3Ypk7PD6e2uF4jsR7W2tj4uqwmffv0527Yf4ChWTyaT0crTrx1I9S5RnL4iH/ATw9trYkAgEoAliUajpm8jTTrPvPEhejG0LEsnCvHbmxE6qtkt9TiYU63pCJohg5NKVYuUF53x8zhH8LyKyLKMvwlRKpWYHpgE4MqVy2XTt/8ZHe4SdHTASqWyPWT+tSA3L+Y7JanjuNaAk3Rp0uinR2p5KS9pjt4HOTNnGj3vJaloIbIkAEu5uLcb3t5PiOql5XI57SD5kE/Kx4jz6AI1Ii3pQ8648iU/lJe2trbbOWof5XSenTK5Tdu2m4gsCcAVk9Zoh+ELwARRXdRF/XGJlaeTAKfy5zmuB2h/ADlX415OAigvi2L0zQ4pEyQAJABLOmlN3kKab2lp4bnf4i/q35TVPR69qD/DxdxbcrnciFzw9XHAAuXFt9fbSaJQXcwFcGkmE4AJLgCXfSfgmXg8PisXhlzI8IQhV2hBO3DxDNezScCegYGBKcuyXpY/Oz3wlUqSlDwg3+spjs6iWuyzRIE7AF5i8hbSFOG8sou6XNCvCtX+FcHjtm1fR+Xvbfl8/rCs1oZqP7rklJSXa6n8LysB+CVRIAHwkmaDhZvBf66QDhRUKBSukRjqY4Fq3+LV/e2MRqNrncoFHqeTbMlyo3zUpeqtSimne6W8XEN5uWxzhKC6eARQJeFw+F+IwpVzegk/lEgkXgqdnT50axV2u0+HKdYEhCPgy0RgX19f32gsFntE/hyQpdHlXR6SRW/5HyL6JBQkAID5i7p2pLw5mUzukpZWUj7fFDL7qEYTjb2SsD3LoE2BSBx1rP3tAwMDT0gy9zX5vC1keHRPTRSlLA63t7cfoJ/PkhpJRudFiEQi3HUlAfCMZYTAHKdyHkskEjoE7xa5AH9VLiDrr7CVp6P5jck2XtGJmpwZ5xAgzqBB90gFfd/MzMwmOd79crx7QlfeuXRC/v+XpJI5oANYEeGls217VpI0AkEC4BkLIUO3DQ2/Uojf3BHQ23x5Xfr6+hqXLVvWIxfm1fL3H4XOTgiirb3zY6///Zy+ciQXHO1Y+A/FYvEAs7LVB6eFrh0E98nn6Ozs7AYd8VPKw/nl5fzxP045ZWZS/hut6H8m5euAU+5gsjKKRmflnDSZUHA3hgRgSbQl2GliQ3LRaCSc7nL6CRwIMeQyFp8MjDoLAkYSO+7kfQzut1yayWdIqwknAFRHQ0MDdwBIAJbUajd5m28l01MCwIXZtm30LunCwgJ3AEgAlmTOcAHvJqQAcMEGl8m5V+acR4IgAbjC4FjWlOEEYD1RBYCPCofDKw1ubpqIkgAs1c8MF/DPE1IAuKB1BrfFq5kkAEtTqVSmDG+vt6+vjykqAeCjjN0hNX3tJgGoQ4VCQQebMfkcSd9T30pkAeA3EomEjr/QaWp74XB4nKiSACyJdiKRgmR0Fjpn+FoAwG8qbB3S2+S4NMzHQALgyYK0emBggM6AAPAbtxrc1nFGaiQBMNVi/5EL2e5jRBYAztz+3yDXWWONIrm+Mg0zCYAZhUJBh5U1OquUFNAe7gIAwJlG1l2Gt/c6USUBMEL7AUiBMj4trGVZOZ2MhAgDqFfxeHy1NIi2GG60jRJZEgCTlfUrLmx21czMzL1EF0A90gaQVP5Phgx3/mNmTxIAoyKRiE4f6sawkg+nUqlOIgyg3kgD6E5Z9ZrcpiQULxFZEgCjhoaGdFIJN6aYbaxUKi/zKABAPZGGzypZPWJ4swtOYw0kAMa94MZGtferZMJPEl4A9UBHQ7Vt+1X5aHR2VGn9H3QaayABMMt5G8CtCSbuTiQSXyfKAAJe+Tc2NDS8Jh9Xmt62JBXc/icBcIczteQuF3fxmCQBA0QaQBDpo85ly5a9qq9Bu7D5yfb29r1EmQTANdFodE/I8JgAH5KLx+PMFQAgaC3/phMnTrxVqVQ2ubSLYUkwSkSaBMA1+nxJste0m/uQ7b+cTCa/QcdAAEEwODjYIi3/N11q+atThUIhTaRJAFwXiUR2uXwXQDsGPiLZ8sv6vIyIA/AracxsLJVKPzU51O8FPMu7/yQAVbsLIKtH3d6Pzo4Vi8XeTSQSK4k6AD/RW/5S+T8pFf8b8meLi7vS1v8zRJwEoGra2tqektWxKuyqW5afx+Pxe3kkAMAPtDOzNF5+IZW/jnTq6nVLGkoP0PonAagq7Wwihfse+ViNTidnhsucmZn5hWTUNxF9AF4k16dtUvn/XD7mXG71n3O8tbU1T+SXULkQgiuTy+UOSmEfkY/VenVvhSQdr8o+J2T9bENDw96hoaF5jgSAWtEOfsVicZs0UvrlulTVx5W2bd9Gz38SgJopFArbY7FYj1bOVdytzp71fKlUelqSgf3ydxNHAkA1lcvlfmnx98p1aL1cj6q+f9nnSD6fP8yRWBoeASyBDg4kWegtIZffCrgIrfi3kQAAqEEF/A2Xe/ZfyvTp06fv4ShwB6DmNAuNx+M7nWktgSXR3tMNDQ2dkUgkcImdJMuz0Wh0mkdXWFKr1bJuoeMfCYBn5HK5pxKJxB85LXLgsugbHidOnNgmF7aktKr0zY+oVJaB/K2lUmlBzpV9kjDvymQyYxx9XOadh4fS6fQokSAB8JRCoRCXlluHi6NdIYDi8XjvzMxMTspNp1T+9fCTdXCrrfJbt8pvT+sFPZvNzlESsAgHW1tbHycM5tAHwBDtDyAXNe0PMEk0sBjSEt4iFaDOjNZZp625lKzekTg0UxrwMXQm1pvp9U8C4Fn5fH7atu3r5OMU0cClJJNJvdX/YsjwnOg+tEqW1wYHB5dTKnAROvrq9dwpIgHwRRJQLpevl48UVlyUzvdA5f++DXLOPEwYcAGnwuHwZqn8jxMKEgBfGB4enpQLvCYB00QDH5ZKpbTVu5FIfCAhulMHlSESOI/e7t9MZ1ESAN/J5XIThULhKvlI4cUHSGv3L4nCRzQWi8U7CAMc2qfqRmn5HyIUJAC+pO+qRqPR68Lh8H6igXOkPKwnCheMSx9RQMh55i+NKK6bJAD+poOeZDKZzZLNfpNowNFJCC6ogzcC6t6xcrl8LS1/EoBAkWz2IUkCbgvVZthgeAvjb1zsgmRZdIysX7sLhcK12oeKUJAABDEJGJELnPYLILutbySBF08AFohC3dFjHm9ra7uNIX5piQRaOp2ektW1iUTiTlnr/AGNRKXuaAtnFWH4aEUwNDQ0Sxjqypht29uZ2Y87AHUlm81+u1wu692A3USjvlQqlR8RhQvizlj9KOkw0HrLn8qfOwB1yXnWdUs8Hn9FTgYdCKWbqASfzmUuKx0IiLs/H4xLhijUhX3S+LmPZ/3cAUDoTN+A/dlsdq20DDeHGDcg8HRIUznWI0TiAyZbW1v3EYZAm5Ak7yttbW1fofLnDgAukAjIan88Ht9kWdaD56aGJTLB09DQsLNUKvXKxxVE48ygL7cz0Yt75JrSJ6tbQzV4BdUZB+U5SfAOcoxJALD4RGC1nDz3h84OG9tEZIJDO7slEgm94/NmqL7HBViQMn5LNps9SKlwtRLWMtZTxV3qMOjav+mFTCbDOP4eFSEE3nX06NHZ8fHx71111VWZSCTyL3ISaxLQ7HbiJq2xSdn3qxwBd8mxnbv66qu/J8e1Tf5cGaq/R3ITlmXdIhXE/6Q0uKurq+tLstrg8m6mtOGijZa2tra7du3a9ZaWcaLv4cSQEPiLTphSLBY3ykn2l84JbXzgFEkARnO53HVEu3pSqVSnxP0OWbSVpo8FgnjHR2//TkvZHZXlhZaWlkPcEq6OZDL5vJStPsOb1Vc29bn+j/Saweh9/sMjAJ9x3pMe0UUuntGZmZlfhAw/R5YTmlnZqswZH+I+IgGXmB5i+TNM0et/vAXgY9p6ksrajVtsHUQXCA5poXcabTlGo0x1TgIAD3AjAVjOpCxAoJhM6nXERoazJgGABzL7Y25s1+k1DMDn+vr6tD+JyT4lvMNPAgCP+CeXEosNhBbwv1gsZnreiWNElQQAHiAtdbdmz/qPRBcIhNWGt8erfSQA8IJSqTTh0qZ7iC7gf5VK5QuGN/m/iSoJADzAGVPbjQ45q+gICPhfOBw2ncxPEFUSAHiHKwNwuHDhAFBFOpx4yOwYAPOFQoE+ACQA8FCG78r88pVK5atEF/DxBd6yTJ/DEyMjI6eILAkAvJMAuDUEZ4+ONkiEAX+SJL7X8CYZ7pcEAF6ysLBwOHR2nHXTmk6ePLmVCAP+k0wmdTpxo28ASELxIyJLAgAPGRkZ0SlVx9zYtm3b/UQY8B8Xzl0devwwkSUBgMdIZv4DN7arHQETicRKIgz4h47+J+fuVsPXgrFsNssYACQA8GC2f8DF5OIuIgz4RywW6wsZnlLarUYGSACwRB0dHfoIwJXsXDL/Pp2vnigDvmj9N8rqa35qZIAEAEugUwPLardLm2+Uk5+7AIAPLFu2TFv/pqf0PuY0MkACAC+SlvpLLm7+zlQqtYooA96lo3dWKpWHXdj0S04jAyQA8KJMJqMZulvDdEZt236acQEAT9PKv8XwNkty7u8mtCQA8L5hF7fde/LkyQFCDHhPMpncKKuUC5ven8/np4kwCQC8b48sC25tvFKpPNnf37+CMAPeMTg4uFzOzZx8NH6HzuVHiyABgCnOe7p5F3exPBKJvMyjAMA7SqWSVv4dLmz6+OnTp/cTYRIA+ES5XH425M7QwOd0z8zMPE2kgdpLJBJ3y8qVIbul9f+sjjRKlEkA4BPDw8OTshpxeTd3OhceADXiPPd/0qXNT0nrf4QokwDAZ2zb3hlysS+A40m5AN1EtIHqGxgYWF+pVF4MufDc32n9P0TrnwQAPuT02n3G5d1E5QL0cjwe30TEgeqRc261ZVlvyMdml3Yx0drauodIkwDAv3bJMu92EiAthVe5EwBUr/KXc+4tFyt/fdvnIQb+IQGAjzlvBDxQhV016q1ISQK2EXXAPalUqsftyl+2v7+9vZ1x/+tAhBAE2/j4+N91d3drR6EOl3elzyH/oqurq3HdunU/OXLkSIHoA+YkEokBSbT1nfzfdnE385ZlbX7qqaf+lYiTACAApFL+UejsCGHVuOOzwbbtP1u7du2bY2Njp4g+sOSKv1mS+Ofk438LudTh77zW/12ZTOYgUScBQHDuAsxJEqDHuqdKu/yEtFT65KJ1Qvb99xwB4Ior/w2yek2WXrf3JZX/4dbW1u2jo6M2ka8PYUJQH3TkvpmZmXe0hV7lXR+SZGB7Lpeb4CgAizM4ONhSKpX0/f6tbrf6HafK5fJaZwwRkAAgoBeVf5SPy2uw+2/rCIVcYIBLtvi1c59OuHW/LE1VqwjC4a9kMpm9HAESAASYvrMvJ/sbNdq9vlY0Ytv2cD6fP8zRAD6QnGs/nbuqWfE7nslms/dwFEgAUB+tjB2hs/OG167ghcOHJRHINDQ07B0aGprnqKBOE/JeORfukI86mFbVJ9iqVCqjcg5u5hwkAUB9JQHasWiLB76KXnj2yUXwdb0YOWMXAEFt6S8vFovrLcv6qpR37djXUcOvMx2NRtdK5T/LkSEBQJ1diEqlknYK7PbYVzsmy6gkBD+0bXuyvb39GCOSwa/nmJThznK5vEr+/EMp0z3O+dboga93Sr7P9ZlMZowjRQKAOtTX19cUi8WOyMcVHv+qs3KxmpKLqU5MMietJ25XwnOkRa+38FtCZ0fp6wxV/1n+Yi3IuXQd/XBAAlDnUqlUp1wM3nEuWACCbUGS6Rul5c9Qv2AgoHqno/WtXbtWn79v8XCLBQCVP0gAQBIAgMofJAAwnQTo60i/Q0QAKn+QAKCOkoB169Y9b9v2mpD3OwYC+HjTktR/MZvNHiIUIAHAJek0vps3b37lvffe+4S0GrqJCOBPOtiWZVl/KpX/caKBC5YRQoCLSSaTKWk9fCtUgxHKAFw5OW/TxWLxnpGRkQWiARIAXJF4PL5aWhIvy8eVRAPwPB3gJ87EPlgMHgHgko4ePTq7bt26F8rl8u/wSADwdKt/NBKJ6Kx+o0QD3AGAUYlEYoOsng/RQRDwVKtflofa2trSDJsNEgC4pq+vr7GhoeHBcDh8t/y5nIgANbyAh8Mj0up/gAl9QAKAaiYCTZIIPCYXoIEQnQSBalf8Op32o7lcbj/RAAkAaiKRSGjnwAdl2UoiALhLn/NblvVEa2vrQW73gwQAntDf378iEoncoTcHQgwnDJh2UCr+R9Pp9CihAAkAPMmZYliTgH5ZVhER4Irpc/090up/IZfLTRAOkADAN5wxBDQR6A0xjgCwGNqjX1v5LxQKhQMM5AMSAPheKpVaVS6XN8rHP5WkoIeIAO+blHNin6zfPn369CiVPkgAEFjOY4JVTjKwqlKp6OdOIoM6MCfLcSnzxyzLeluS4sMdHR2zdOgDCQDq1uDg4HK5GK6UC+Nq+fMPJTFoks8dobMdCptl0c+8ZQCv0+f2c1J255zKXpd/cir9iXw+P02IAAAAAAAAAAAAAAAAAAAAAAAAAAAAAAAAAAAAAAAAAAAAAAAAAAAAAAAAAAAAAAAAAAAAAAAAAAAAAAAAAAAAAAAAAAAAAAAAAAAAAAAAAAAAAAAAAAAAAAAAAAAAAAAAAAAAAAAAAAAAAAAAAAAAAAAAAAAAAAAAAAAAAAAAAAAAAAAAAAAAAAAAAAAAAAAAAAAAAAAAAAAAAAAAAAAAAAAAAAAAAAAAAAAAAAAAAAAAAAAAAAAAAAAAAAAAAAAAAAAAAAAAAAAAAAAAAAAAAAAAAAAAAAAAAAAAAAAAAAAAAAAAAAAAAAAAAAAAAAAAAAAAAAAAAAAAAAAAAAAAAAAAAAAAAAAAAAAAAAAAAAAAAAAAAAAAAAAAAAAAAAAAAAAAAAAAAAAAAAAAAAAAAAAAAAAAAAAAAAAAAAAAAAAAACzV/webzpsNQ8rBPwAAAABJRU5ErkJggg==;" vertex="1" parent="1">
          <mxGeometry x="386.5" y="90" width="140" height="140" as="geometry" />
        </mxCell>
        <mxCell id="3KW4BId67RAqC139ysHB-17" value="" style="shape=image;verticalLabelPosition=bottom;labelBackgroundColor=default;verticalAlign=top;aspect=fixed;imageAspect=0;image=data:image/png,iVBORw0KGgoAAAANSUhEUgAAAZcAAAGXCAQAAADVb9WGAAAABGdBTUEAALGPC/xhBQAAACBjSFJNAAB6JgAAgIQAAPoAAACA6AAAdTAAAOpgAAA6mAAAF3CculE8AAAAAmJLR0QAAKqNIzIAAAAJcEhZcwAAAlgAAAJYAJvGvrMAAAAHdElNRQfjAQkDFiuuDld4AAA3WklEQVR42u2dd5wURfbAvzO77LLLwi5xycKCgihRUVAEVEyoGJEzIZizoJxZz3Se/jw9s2dO6OmdeuqZAcWMGUVFCYIYkCwZSfP7Y2Z3J/TMVHV63T39fZ87l5nu6lev6k13V3gvQoi7RCimhDIaUUkVLWhFS8ooo4xyyimnEeVUUMRa1rIuIetZz3pWsIilLGcla1jHH2xiq3RlCo2ItAKBpwGNaUE7urA9fRlIQ1tLn85nfMNsFrCYlWwgJl3dYBO6i/1EqaQDOzCQQfR1+dq/8C7vMp15LGOjtCGCR+gudlFJO3owgH3pKa1Kgt95mXf5inksYYu0MsEgdBdrlNCenTmQ0dKK5GEqz/E+s1ktrYi/Cd3FHM3pwZ78ie2lFdFkKw/zKp/zE5ulVQkJPo0ZxM3EAiDPcyRtwp/LECcoYQcuYK54J7df7mYvqqTNGxIUmjOSSeKd2mlZwgS6hPeaEPO0ZgwzxTuyu3IdPSmSNnyIv+jI2SwS77pycje7UirdCCHepw3j2STeXb0h99GHqHSDhHiTRoxgungX9Z78mfbSTRPiJaL04xHxbullmcVImkg3U4g8rblIvDP6RZ6lTzh2VqhE6McL4l3Qb7KCkZRJN12Iu5QxkhXiXc+/8tdCfZ8pvJtrW07jSmklUtjCKlazhtWsYS1rWMs6tlBBYxrTmCZUUkklxdJqpvEWlzOt0DaoFZa79OBGDhK8/qdMZwG/8BtLWMEq1vEHm1Hd0hUhQgPKaUJzqmlHJ7Zle9HtAusZxauFtFizcNylD7cx2OVrruYdPuFrfuBXfucPh64SpYxqaujN7uxHuct1hGN4zrG6hQgwwNUZlclcwCBaCT0+lVBNf07gbr5zsc6nCrhpiO1EGMoPrnSYpziJvlR56n5dQhdG8bhLLnMBldIVDrHCUJY73EU2cAt70Uy6onmpYgAX8bnjLnNeOMzsT3rzpYPdYiU3Mpim0pXUpgGdOMXhR9NjPTeKF5KTzg5OQD7JsAA8dFSwB3c56DLDPfVQGpKVltzpUBe4jt40kK6erUTpxMl84Yi1fmE36eqF5KacSx1o+FmcSsdA/1pWsCf/c8By0+gqXbWQbBxoe3Mv4yRaSlfLNRpzCB/bbsO/0ki6YiHpdGGazc18JTXSlRKhBSfwk822PDTQ92afUc7VtjbuA/Qr+P3q7RnHFhtt+hXdpasUAjDcxkady4HhvEEdEfrynI3WvSXcYiZLRz6wrTEfCn//DGnFhTa6zP7S1SlUIpxsWyOeEQamy0kJBzDLJlv/h+bS1Sk8trFpZnoaQwr+PUWVbtxvk8scIl2VQiLCKbY02rNsJ10V31HJBbbY/mVaSVelMOjEDBua61E6S1fEt1Rwni0uM1K6IkEnwmk2NNNdhbrT3EYacZYNLfGSDxep+obmTLHcQP9HtXQ1AkOZLT9e4coyRxhkuWFuD8dkbKchJ1lulyvCwRZ7KeJKi03ycviu4hillt9lZtFBuhLBoZ3FtBFz2Em6CoGnpeVB5sOkqxAMrK4zPiBpeV/EUELsoYfFzc0PhkkyrFHE/1lqgBNTtnONynJUf+lqBoh9LbXXL7STroB/acpHFkz/aErAiTIezHFsuPTPPko405LLDJKugD/Z0YLJNzMgpaxu/JHz+Gfy6LIznWypU5RyWtOL4ZzDPXzIYZRIm9kRmnOvhdY7S1r97Hj1yf1wnjV97gXcwaakfx/DE3nPOZ6JWb8byAfARK5gfuKTKF0ZwaUsYhGLWcoyVrCClaxmNWtZx7yk2MERBtOZ7vSiPy0MtX2E5a7a1h125z3T5/6Lk1gvXQG/EOU6079Mb9MxpaxyHlU8c9ss2gxOOuZxIsD+eUr6I2l+ZzcWKFz7n3SRNroDlHGj6XZckdaOIVmo5B3TRk4PF749W5XPXW74YLR3yjEHAPB+znK+q9sM0EdrpOg9Bnr2Xm+evqw33ZoDrF8+6HQwbdz/Zqw/Ol6zhFuooISipE57QMr3wwBombOM12kIQHcmm6jDOkYmzg8ODbjEdJseLq28t+lt2rBHppXUiCdMlxVjA3N4h3+nfDY0UXKudVIPJpZzXGbh2jEuDNxine5Kj6RGMl5ade8yzKRJP6JtWkkNLXVXI6kf3lyX9Zhr646xvlr3wazvUv6kyLRN7gpXlBkx2qQ5TzV84m9gIO+Z7rzJT9HV7MqpPJ4RrDx5+PMYW1z0YwYFKq99H5N2mOKdSGVeebm8POm3WZ1fuIsoRUmylNtZm+Xoo3jalG79+dTg0zO5K+lfJ/BY0r8O5CWb7JJart9pzIOmNoUtoSeLpJX3CsU5Z9z15egst2+dic+NrGQR8/mOPlm0finl+OdTvtvDtrqMlm4c29EdgKmVIA61m6CE1211lhgx1jEkY2HLAKUzT1TUOpJxZvJjk9nHjkJwF+jGBlO26CWtOOLPxmW8xb4OlDqVlWzlIUZSQwmwDx8qndkt7xFRSqgwSICUHKphbd5SAKbxju019wPfU8V9Js77kl2lVZdNXNOIDxz8zYgwlrEAfM9E9qOUhpQlpJxyGtGI49LO2TFLWZU8Qzva0zjr1Xqzsm7hxjrDIz7jE2YwmwUsYTWbgCJu4VzH6u9dNnAar/Gc9nnTGFKgPzFAE+ba/hiWXYxolnHUrCy6jlW8yrtcz5H0Svu0TY6llKcX3MNYLV1NteMwabVlaMZiF50lRoWhFo+lHbXF8KhInhXNuSXfHo5ce0RGBzqjcJWpLRr7yCksNZDcigUu7507mTWsZR3rWc8fbGAjG9lEO75OO24gJTRMPLg1TDy2lXO+6et2ZW7eY3bI0CKZuTzAG3yX5RHP3xRzC+don7Ufb0gr7ibN2ezqnUVOtlewxu4sVCorqFtzzcS63ltaafdowhKbO+WopNLtzyFmXvIPY/TiE8WyTpJuNgcZYsK2QyQUdf9hrBFf2jbl1DPx33lJQ7f2zaib42/8xK8sZhkr88xE13ArByuXW8pG0Xo5S43CI2s6u/OBtNpO05BPHX7U+bPwHUUtSmZr7tMq9QjphnOcJryrbeuAByVpwJu2ds1Md9lN2Fli7JLXClXau0U3FMCq3FJT1u5p/cI6uDlNWcS/2dPWEjtkRD983cX6xK+3X9onH3Ejd/BLluPLOI1/aF/loCwD3EHiFFNnfUUN86RVd4YHxH/57ZOFnEcXolxh+O2hhvVvoLy8sEnKKuvg31mMJozVpVJaeSe4VLyL2yNTGUnLulqNSPt2CtcxktaGFpioeIWJqiYNCBH68LiFFvlEeCmXAxwr3s3tkAczQh/1SPr2krxWKKIjR+R1m77SjeUizW1JemFmwaaH2VO8o1uXH+htULOmSUdkBsVulsUeEVoyjFtYbXgl6VXi7lDEQP5nW+uMk66OfViJR+kVOTLLDFVR4vtN/Ji2kaxhYqj4fg6mbVYXaMIuXMp3SVc6W7q5XKCcCba30EHW1fIC7Vzq0A9xIv2p5iDbS/5rluWZcUoMXaELK9NKeZHj6ZoS4jyZhvTgNN4ilvReFFSsRE3IJX2kK2adxjkip9gj33AGNUld9lBbS3+bGhO1PixHiR9zHr2zrjMO3EtrBlH+41hfaGtdPUkivOaoq9xjsF1rjI3lm1nIV8IdCiVvNVFyMFCxjllZ5vR2B2d/zS7PmMSzl9OZwfNU0JhKmtKCllTb9gszjntMrdK6Qunt42NH7eJd1KxjlmY8x3C//hQd7OidxUl5wkJ+5GuVrnCvdOMIYT7+tar8n5PqOzdo2Z0XnVTcMX5jZ451PKrVTMNPIwwOeKZ5c4uUdNaY/1k5mo8JnHKXqiwdwuscSzs+c+E6P2R8EmEvfuHtlIgyweMjU2fFtFaUPWjzysQknHGXKP9zSmGH2cmlJ9+fU/4VZV+WMYU2QJm0CSwRqUvXYcz3pkrdygNcpHH8mwoBsDyE2vO7N8WdurevO76I4SmD7btJN54JIlTSjzN5mRi5VyWYW6b/XwBu1zhjo38SfwwV7/JWpLXF2qu5S3zis4hD2JL2jWCcE5M0SatBvsfJUqrpo7WKMJ54McqLGufcLm0WNVqId3hrYnXfopq7vMALvGD4zWEWr+8+6RGuByud1VijTWpT7ZYyW+MsB3547H53iSRunP7lBFeuMoIRjDD8prFmSdIMzhiJUnOX1TyofI3a98k/tBLwvWH/giK73eUc3+dFPzjrui538Ju7ZA7bqt6f1XeV1r9RLtNKE/Vvu0O32OsufbnNXvVEmJI37qST+H9vYB/FtSLfsCLl369lHeZIHq2cU5f2MD9DTW5pdgWdp1Gvy4mmf5esjgreKN2MmjxiUIf2iufWZ1k7n1ZkS5J4ecZPiE4gv+7SBsrG0+Kd3E75OpHqQo8Sy+7it52BRhlF91c8t4IYb7JHUjSC9JKuNlzl0FHDnqu9Gf0zGNuLM2UqN3AM/WmbZyS/EXvxlA3X+49PQllUsRtX8hYDaMazGbVQzSaZnuN5WlIZ12fJAB3hCy2L/l3aVJno+LufxWjOvYpDmGTjNRZ5fKNTEfem6LuRYzgyrQ5mFzrekjj/phyjWqdoW9SxRTHmiPCxeEeWcJdmHMd0R65zT57FJJKcYaBvHyr5Z8onO5gquza0VPY3x86m7NlcQwfH8cOD2HwH3OVhRzU+yjN5qZMx3kzeCYD+SVkn55sadd01pbxMonxjypZuh2vMQWtxV8gtS9mfIqCc3pxno7u0dVzzbz04rmOceLf21/vwpM/G5CiliOb04Tju5koOYQeaJQaf051xM+tZxXIW8Qs/MiclCIiejJU2XC1viDtEdpnJHim/0VZjKCe7y22u6O8t9s+iZ+2m334pnxrNowzjDmYZlrGUD/nQQVvqTHA6xmEOVtC6bE0bZ/qbbe7S0hX9vZW4tFEWLScSIUIV/TPu3uld1B2rGcsC+QhuzcUdIp8MT9F3tcXS6t3FnU0K+tmBneTvhjoeRv2IVqZczTZ150eYKtoX/iRtwGfE3SGfrE76TWlqubRad6lySfv7pRs4hecy9JueWDD0Vs5afJtYTqo/BGy3NLFmAGu3p/19kKangr3q/u5jW6mnuqT9cpeuY47z6ZdIzbFjzuO2pwjo5oEVC1fKXbqR+G+FmvxGhMbsx/M2lFXmcs3zhyl3k9S7S33mzYhCLUpYId4TYsTYzooBrNxdJki3niLVvMsqXuMQG8o6inuYwxrXdP/dtSvpcTflfFX3r9xbHp7mBuAaj0y8PiFz2UJZ9mKHvMDghNyT5YiHM/YkxriJHeXHclKI1Ekqud7kfqAUGCzeBvUy3EzVrfKyeLX9IpeldK+dDI/ZG4jUPezcSV+fLLSMk+2nc3kiEJRbAyOqYjrajtmgr7vL+Kgv+Yjk+DKf8YVBwqNPqN0zuIgObJJWWZPfU9JFLGIpK1nHxkSNIjwirWAa47ne3InmViUVscrp4M0BYh8mp/y7f12E5Nm8ycd8ywJ+BSI8y2FAOeulVbZMMZW0pxv9GcrO0soY0JGf3LvYWPHbqZ9k/4z8MAfRncq095LWSVlPTs2ZUcbbnMGj/Cpu83zyirnKmbm7VKXtsfY3/0n510iHrvIatzGbJazJEiXz8EQsrXqu5S7HIzXbTwNTWQskGMy77lxIdWnh6eK/IbllCrun/cKXu3BV4wk94wiNj3ljWaAG1eKtqipb3In4s52iOovr8jZ6Ua40zAPjvLu0yGLV7MEa3qOrXO/XZoB4y6rLGW4YRHUAuQ97iBskmzySo37HESNGVxbYcqXhDE26c3TKetVc8xI6oeiksSPtt3vieB7QHoqKPEAncWNkl945aljrLuU2JBwdkiizVd6rts+y7SqGv1KUThRvWx1Rj6NpksmKijTnD3Fj5JJH2JemlBhIrbscYnlrcf8ku/VPCyZXRTVt0+KllDGI+w3K2V7aBzT4Xbxl9aSNk8boqajESTl+KwtFcod2+CRx1HquSfummB25KqUkM7mXZSgRt7quOBpUSe3xZCvXiJvBbpmreXyXnHZM3pHe1/CICB05nRg/J5Ik+QPnoxfYL810Kqgz79KXz5WOO4p/S7ebElOSIuhOoXPir/rf8g68nfjrBi7jeI2lHO0Tu0CgB9/VzbTUz27vzQ2Jv6ZncRd/0pIzGZNjQEOFFYxL+fcBDu+BvILrnCn4UyVvdTI4gZ3yTVJUyiuSPq8PMlo/WnUPxbRRnKtekTRY3I4Y7yZKTB+k3spAunkr/pVNlLGLpZbpnFJaEU863BMcyXnQX7yD2ykrkrahps4VGLlLjM8Uy52blDurIb8lPt2RTHd5VLpXO8gES21zWVppUYfH2851wgRfK13antkK56V+xD09VVytuxRzvqmSP6gruT7I0K5kusvR0n3aJowe5/VimmZO0UYzrmE1gk9usT19brDuLR2TapYenCPuLr3rtsqO0ohesjolc9YJdZ/HVxBUJ03xHiDbx22gMX05h6nEeINz2YVmdY5TrNUWu9El47OeBtc70cH+MMZu47wp3sXtk2VJ9fpTxrdnpu1IByhjoELe3VFpW7ourvumNmXCEfyJPenp4/XGDdiGQ7k3y6za65zDLlr7bHuAwWIp4zSswzTK1RVb1495eYZeX+rH7VTCU9cTZeesR11osP+nAx1pSkOPbSC2huo7nJrUpk3KDMhknFlnB8f6hK0Rje4Q7+J2yvhErYr5Mesx39eN8CVnwjJ2l3udX3vkEazNqzzPHlzCR4l//ZA049Ehww2nZYkO3ZpFmlf9q+Jxtv2oeW2ntVUZlqjXVYbfjqYREahzly+SDJnpLlOtBeLxGRdYsnvtI2gRrdkr7fU6YvDC/yDVBjqUa64YiSpObexnl5HOFe/gdssoigyCi//MFO6tG4WvN/IXSZJ8/NKsqUeDSdSSzXvkLb8T32acdZHBQ+5Rmu7SV+m4xfakB/HfOiAV2WTwWepyiHy/SccG6p1EhZ0s2FttZj7KmQbnjkqz9IGa7gKfKx1pS4r7EeJd2y1J5uw8x54k3XcFOMu0Ze/RuEpX5mWcv4Ldk44YmuNKf6bGwF3UVhl8Y4eRFot3Y3fkEY2OcY50zxVhqEnLLtTMIF3EeINSpta97WTr/LfTgsyw8fE7k9r0eS8tPQ2wcgP2lyxOktxHXijdb4UwO53Q0cS1uhuMgL2XcDvjbSS1m+/SXx7i7qI2ZzPRqoleE+/GXpOrpHutGOYCqe9r8mrFSdO8tXITANsaXqd+pM3IXVSHKSwltGgm3jm9JjdJ91lB8sXZt//HZUdW1ZU0uW7DXQeD63yZdNbslG9a04+jGMdJSvoea0VdtUsUjtztyVzE7vGVpr0+tjx62IC/JMoaX/dZhMcyrpS8qvg/Flo4T2S33NW5TbZ1PMZjnEXMejE+RjdT5vAsQQjV2cQuib/qhwtijM2IQjkl6e9vLVyvVe7NbblCim+fFnqhsHmWEwvcWeAzraMHsNTENQZwDEtZzgp+ZxU96kLXJy+C3MJhvMOuSZ/MyfK3PseYDTfuRiJsv8jrpnMVBAmdoHsfmrxGSZZoMukhQMqT4idMS/mmKVsttbWpB8iGSkXnX9YeBHlfc+YgqLTTsJnZETHobljeDRnHVdXlsT7dgp6ZYmr2ZT+loncU78rOy1f277bzKWo/oXEptXAdo1iYxxsc1yrxXbeMb7pZaO+7zKisso7zl4JwF/8ELnKeYkawRsFmueJ3RSmlkrZ0ZyAjOIWreJA3Ux6oIjyUVNYkBmR9QIoPKhtt7rKy/1fb1VsrFTuyINzFyu9kEIkwhJk57PUdz9dlDmjNduzCcMZyGf/kNeZkPeurjOtU0p/xhqHfk9mWt7J8s4/pFh+averGnMetCoaroDMz3G0rAQp7riUbNRmdbCNr2ciWuiOquYZTlcubYX3FVgZ/ohsbE7KJjWxiE6cq7Gx5iYP1LqQS6/ZuKIC7yxQ9w4UA0ISrNe38lfWLKjFESZssi2GMnwnbUqlw4dsVjvE/H1gvIpA0ojTLfbchZ7KSK6UVzIJae2YZ1zOeTVAJ67OR76Rr7gqfSCvgQYo5nocAWM6XrE77doS0ejnZxA1cnPeoq3hGvcjZCrer+BqeYD+MTaODdOt6EPOv0F54GFPNf9datbjmSsXFdzFUBDDafq0cG77kZ9CLGQ5Z2z13ibBFQR/lVHwqoQOWJx1fxYXiXdtu8VOaCLdox9MOWtw9d4FxCvoob0X+wITvVVjYye09OdLFpvMHTbjWYZu76S7tlTRSiszfRKkoo8mjhowR7+jW5cWCCbKnjpPxia26SxHltKIbe2gtjVymoNEQlYIOUChoQdazLxXv7tZEc3qqQHjBFdtv5GaGUKWgTxPGcBVPMj3l/A81fujyRfqJEZ9XzMv/FAo6MevZfnaXp/QSrxUQ7rhLrazmBgblnPmryXruYMUadVDSJO9QT6lSMa2ynp/qLsMYxjBuFncEFTkln2kKGHfdpVaWci0DDd8ganKcdXlaHoRsrFfQYJt8hajEOF+e4/xUd4lHxR0l7gr55TTpHulpZNylVn7lSvqn7OytyXn8F0pzJirPQRlPUemvR/soXEg9uXI88+JM99tXkzO4V1qFkKy04Wo+Zg1XK+5o7cNC9sp71HMKJeWde1FJqbdjjvNTfTYectvr4ZeUJ6QKFtm7S738lEjzWqNw7DV5HsqKlK6YFtA81V/L62I55eJ7ZTN34QNgpXRr5+RsrQi+IZK05wfuUzz2CkbmjFyjtsild2rMgVR36a5QwHNsUq5ePMfgFn7M/9IkxDnmtpqGiKG+g6a7Un/OzchUd0l9d1FZifyIxsX6J/47ybLaTuHmXHKI/xifOpic6i6nKxSgs/9jj8R/p2mco8uLbEdpmpRklfQHL5V9PSGFTMr6leSHscYpeRiNWZKSNzgfRRSzGfjaoaq8yniNN6m4RqlUOaRZkOjr8R0szrJr8hha8t2lp8LJN2teLD7J9KMD1ZhED4ZrOkumuzR1QLMgEWU8n0srIUrK1EqyuxykcPKbmheL38p07kgqTKUn+5qaz0kfuW9us2bBojXTuEVaCWGOSf5HsruMUThZd8PxZIqATdxhm/rv05s9TT/epd9dwtXH2dmfhXWDNYVLk+S5l3p3KVXYELU6Y192OumDzK05C4CLbFF9Bv0YZGk0K/3u0spUKcGnlNt5VVoJj2A4CdJZYY4z/43ZKCxofCZ2Z6VZ1NzSO+/183FrWonvSreFJ+nOOvEZfO/IcUYmOkThRJUVZcMzzvoyMXZ9lUW1X7ClK7RM0WOudM/0IGESrFR5wshItyqcqPbo8lnGeScA0EAp2F926WRbh2hcl799vXTf9BhNeVW8e7or3yscY8AvCqepRUYxin4efy/qYaFa9g0WxClNhPAIqWcP8c7rTcmIaamyLewpZbP/I+PcyYlvVGJwGEsLB7pHVG0/dkFQHOAQWFalT7qxVF70RymbvtLg7MMAiCrd/DLFnpG1kGx04kfxTuldyVgcNkLhpO01zH+cwfnxnfAqjpkpYZZMJxkp3iG9LS+lG+wfCicpxV1KEGVRxvm1D3NjtdUdLd2fAkwFT4h3R+9L2lv7z/qn5MFoniX+phDhPU1lwzSqTtFPvCP6QxIxguKz+sW0y2vYSeiNIn1qMDTwMwAxRmqVdDubJXpS4IlygWbq78IlMbMfd5cmCifob/Eal/HJwrr/6oRVfdZVwxQOrTWClBQ6NfH/xN1FZd/yx9qXWJThMOvq/npWY45+uruWKRgWWi+iYEjEsIi7S43CCbNNXOQejuPWuu7+fMp3JyqWMZ9V7lunIIiFQT2U2Tn5H5covOw0MHslIEIFXdICLpUpvmRN0L6aWhTDENhT/BXaL7IibrD43WWXvIZdqBH/JZMYa5ibtkdFNbqX7jLybvyoEJQtBCjwfZI6VCX/COdf+qi+AEYNtQxlMWKUaJRaxHhixMJgSMosFP/d9otUQvzuUqwQD+ULm5tJPS9u/jtfLdsxL7Ej58wwTZ4idi9cDS51+26bKvjWIbZeWmchjNoDQ1Ha4k3lRJwhgL8Tjbgje0L87qLStebb2ji/sFX52L70yHvMtszlHymfDLRV3+Czn7QCnqcbxN1FZRj5N1svvVHjEQuuzvltEecyK2M/tb36Bp2IchqhwqVP7R/jFW5FDW2//E0aN8LsS3S68oPB8R9J29ZnVIo/6nhfpkP87tJRwaB/2N5E6i/7MN7w0yjnMDsROCOVk23XNtio9IBCpzeReCCh/A9j32D/Jt31DOI9xWMvYAMzmcevLGctWwDowut0MTz6f8xwymYBpJj+WX6OQlIpZQPAzLw3ogcdUuAeU7fFDbyVM9+lyrtYSJxh4g85/pHW8Yex/FkwdGNXqnKhqbNKGcr5Wb99kB8c0jaIlEor4CMqIZqRndIIp9aurmaY7WVe4ZCuwUSl9UPiNIOo0iKTxY6pMMU46JlpbgyHkLUIl6OqUw1RyhQOtDuCfjLn2FraRWzlTS5jPzor1azQCd1FnbZQrBSw4ncHlVhBG3bmcMbaVuKe8QULALzEW3zOVAf19zehu6jTGqC3wpiAG3HqI1QznPsMr/84CyyNaYT3mWwcLT7e5B+5F6JK0SHXKRxjlRiLeIVTidKK/dP2+V1ER4qoZFuloOaZhOM/2Qhf9dVpC1GlBZb2z+lnJ8YSXudMIrRkX+6s+3wrq5hjMm1fuamzCoHwYUyd9hBVig8pE7hoKZM4hwjN+bXuM3PLNcIYmNkI3UWddmojYxuQjVO/POnvbqZKUAkMVZiE7qJOC4gqPKh4KRJLH1NnVUmr7VlCd1EnouYu+fJRuskEenIc92tOnIbpwLMRhtPVIary7rJGWsskVvE1T3Aq1ZSyAxOYp3SWE7lhgkF4d9FByV3WSmtpyEa+5WZqqGRo0viZMbrzRlcT4xlOopdW1gE/ErqLDhGYmHd65nVpLZUq0jdHDe7WKmt02tlPMpoeAR1dmyA++ecnKY1SkdekbkxSWiXGFxyQ9du2GiXtyaNpnxzNo3zDGjbysHQ1bWeLtAK+IqriLt58GMvktaybjjsol9GDN7N+14AxxjnWE/hxhvwfjm39CyJRmJb3FnSftJYaXGtYgyWKZ1cr3JC7ZD37IW7Xuo95g2LeFX/I8Ys0ju/Dzy23SreoBhH+ZVgHFcpZrGCyRVmDq39AjBj3a9zLvEEFy8U7oj+kaVRh5F09hJ48MU4wzAeT/0GpiBfqA3vmoBXXZPkmnmHgZBbwuGF8Gq+yRiHwYQgAxQp7WaqkldRiI0NZmvEjUMzGPOfdorwR+mJe42vKaEQFlVTRjBa0ojpp0Pk4jmMXPpE2hTK/0YNvpZXwAVvgjby3oP9Ka6lN+4w6nEx/WuW4k55t+417s1buAHn2EH/U8b5UwDN5D5oq3ZIm6JWlLgu4l9H0pXnKBN3Bjhj3YmkjaDJKvDt6XcrgobwH+TPIXf4IWrO4naPpxU6OmXdbaSNoEk5a5pZSuC3vQb9abwcRRjtuvnwy03d5Zu4Wt5mXpUFUYb2xXxcoPqYVh9kJujNa2gianMMUaRU8TCyqsN7YShJXWa7NWNDiNo/4LDHTFkaECcSzsjXC2QoJ16LI7qe0QoQGlFJGY6poRita046OdKaLQopBO3iZg6RNoEkrFkmr4FGiMFbhmS2Yy7y7u/TEe4B1VV1mW/G3BG8KUaX1xsF0F9WVZFZ5xXe7Zmazm7QKHmQlFCu5S/45cT/i3qbqG3iaLWxmS4psZYNnIzp/yBE8K62Ex5gPahk+ghpJRfrmvsrT9+3zLNRsX8pSpIu4ra3LixBlvYLh/Ds2lpuvha/fmGOkTZCD27jN5JkDeYP1KTKXrtLVsczPEFUKi+Sv1U/qfCatAI95+s59Pq+YOKsn0ww+9b/D/ArFSskogho01QvLey7hEmkVsrKVI5hJp4zPP81xzlFZo/PMpStzpKtkgUVQrHR3actcaV0dYba0AsDF3Bt/ifQkG9iZpWmfTU1KCKLHXLrQj85sR0/6+u6ZZSkUK7271PCutK6OsEBaAQDuY19pFXKwLOPN1cqU9Q9JmUOjNKQJzWlNR05jV+mKKlgiUf18cqO0pg7RRny0JS67SxtCnPXibZBfdohvys3/BN9X2poOsVJagQSv+zKKjH1EaSitggJL4+6Sfzh1oLSmjtCQG6RVSNAosEP1avgjXdWqeEjp7/MeWEFR4AK49TYMgSFFiaspp7xG/lh3XmBD/O7yg8KhwRpKLmKCp5yFAs+e6YcMCUuIxe8uPykc3MxTaSussQ1vsJ20EmkEMwKzKioBq6T5FOJ3F5XdDW2ktbWNY5jvOWcp9Pxm7aQVUGAGxN1lucLBfgozl51mvMwT0koY4s5WNa/SSVoBBWZB/GFM5TGru7S2NjCMSdIqZKWZtAKi+CFizjyI3102KBzcW1pbG7hIWoEc+DV8iD34IejsAoi7y1aFsbEB0tragJe7ZKuCnqjsJa2AAougNtT2a3kPrg5Ac3p5/OWvbGG8z6LG2IVKjiF51sRVBXhf4XA/VCk3uhkq3eYWFjKN/X2xIMRO/LAyeXp8YWncXb5ROKFGWmPL+GGhya68ynpuDcTQiip++CGeGv9P3F1UFrLvIq2xRfz0MHkeM1nFWF/MdlunSloBBRLJR+IxfKMKK8Je5BBpnS1RzCZpFUzwMvcnosYk/6/2/+MyU1pJi5Qqjc3K0o8vgLqQ1zMSua9y4edYlv5oFHP05itpFSxyIC9Jq5CHVvGodLWPKK8rnFIlrbMl8icV9Cuv+OpB07gG30mrkIcV8f/UGnqawin+juThh/EXc7TjeGkVLBJjlLQKOVnA5vgfte6ikpnQ35vE/BZ4VYdHPD0Fq8JXHl3LF+fF2j9q3eVnhZNGSGttiX7SCjjKLdIKWGaCtAI5eKf2j1p3UVlmubevn5H9Fwdfh+N9EEklN795ON7al7V/1CeD+0hhZqVlRswp/7DRF9OU5tlA49onbJ9SzlppFbJqlggvVn+/UEkH3k1ab9M0DrizQENO98X8eHbWcaS0Coasro/FV+8ukxVOHCStuWn8sKPCKnewmsmM8PGA/389mTb48fo/691FZeT7UGnNTeNfR9djb15gBZ9xtKfXX2djqyd7WNKcZHIi68UKJi72aQClxkqxoIOFP9vqec8tttqmfk1l8ljXAwqn+nXP/mofv3eZ431fOgucI61ABkkPiMnu8qrCqf4djp3luwzE1nhOWgGT/MS10iqk8Ha28camCmGVVUL4eZcrxMNSuyf9pY1tmsbitkuWM7IrukXh9Cppa1ogwiRx87slfm6nY8WtVy8pMelS5+nvUaiKn4NcxDhCWgXX+F1aAQs8Fd8Z7wlSnqdS3eV/CqePltbfEqsKZFvvv6QVsMQW9pdWIcFzuVZKtFK6Pfl958jB4jd456WTtJEtM1nchjFiueeBIkpF+CGIWm7+It4Mzso+0ga2gRpxK8aIUZ1byYkKRXg5GqQaUd4UbwjnxLsre/W4WdySeTfbD1cowr+rkuupFG8Ip2RSykoNP1Mlbsub7OlGft+7B9BdvDGckSDF8j9Z2JYZ+4fTN3ytjAeIyUMQMvV+57m1SXawg2fS09qB9JIrhQg7xyl43Yv5i/EFV4vfC+wVb+4XMUu1sDVVYrsqKhmMuCpR3hbv4vbJ36XNaTN3CtvzbDU1lygUNVTaljZRKd7J7ZIZvp8PS6WjuEUVtxSOUyhKJYyfP9hevFnsEa/nF9DlCXGLKo4wqk0QNZe2p22MEm8Y6/JXaSPazLbiFr3YSC2jUEjzlCp0qLRFbWOGtAI2MFdaAZu5XVoB/q1+6PUK3uedNaNWaSL+S2Zdhkkb0VZ6idtzs/GjmHGgvacVqtQoMGt7VUISep3fpBWwlfulFeBiDBfAGLuL0ogzp0nXySZitbmhfMwyaQVsZFcPpN56xvhjY3fZzMMKRY6jVLpWNvGGtAKWCVKcG/ng4uuYb/xFtqjHdyoVO1i6XjbxoSfDwekQnFRPe9FFWgUuzfZFtrFllfR78B57SNfMNprQi+Gc6ssB8q0USatgE1GWe2CRaEd+0j3lXKURhKBNjkEj/i4+LqMrn0obzTbKxW0ZY3l29bKnoHhKqXojpe1rO2uZQB9pJTQJwsxRnI3SCgBXZP8qu7ssrk8Ck4M7A7MZKZkvqeBRaSU0mCWtgG14IfJmjmmUXAmOrlYqvI907RxhLWN8FGTJ38ESk4mJ79d5wexu4RKlJ723hKvnJNvwk/iTtIoEYbteLZ8K2zJn9M9cd5eNXK9QvaGpcf4CxY/U+GIXyWJpBWxEbcWic3xm/lS1tclqgwL+5QDxu0c+8ePgdzbGilryFGvKz1e6SHtpGztMe+aJu0QuaShtIFsZI2jJKmuqj1S6yB3SFnYc+f0XuSRoo5MnCNnR8vKbCsULBSGUUi687C5BiPuWzmgRS/bOp1Y0z/drFFePnSVt3wJmurQCDvCYQOj6tSqBkvLRQdEzG7tePTfx8t3lNmnjOIRKCC875fj8KuW7u8BP/FepcidIW7dgmSOtgEO86/L1ns9/SH53gcuVLnZHwMZn/MN8aQUCwfUqu2pV3OVbxakb/ywaCRbzpRUIBEqPtCruopq8eWLAAsP5gYV0CNB6ZDnuVlsZoeYu0xT3ghdWKm55HqIzP0srEQhusLe4AxVHF8qk6+0QXhwZO0naKA6zjWuWtD2TZ7HihS+UtrFDeM9d5KOlOI177qIYDVmHExQv3Vrayo7gLXf5JoCbvjNxy1004n2rrzYqY53ScRNVpnt8x7ZCOxar+IMiiiimAcWUUEIJpUzPlb46MGzj0phfL2cGS/6s6K29XKmku8jcXQp76tedu4tjYUFUYwl/F7gVsjLusjow4ZDM4Y677KqjktpAcpxVnK50XDcOlLZ0INjPE4Eegs0sPnKucLXd+zFigQkHW4v7d5dXpKssjht3l356KuncXWAjhykeeaa0rX2P2p08xAov87mzF4gqZa6MEbT4lu7fXeRDn0rj/N1FOxG53t0FtipnDbN5WUHBEZTsOeb5kXMdLf8Od6LOfKjouzu4oYxLuH93udi60r4nwhQHLezShvkeiuosDNAKZffdxYaNsAGgmWP2neBeJZ5UVOkiaWvbhsS8S4l0pT3BQIesW+5eFdorK7WjtLVtQsJdukpX2iNc6IBtj3a3CjcoqrWKBtLWtgUJdzlWutIeIco0my37h9vrJaqUVfuLtLVtQcJdNDK7B5yWNlt2kPtVOEpZub7S1rYBmSWWwVt7Z5YhNlrV9s1gKkT4RFG9rQFYEiPjLi2lq+0hrrTNqkIRVzsrK+j/KUsZd9lTutoeoqlNNnU/OmYdFygr6fetsjLuEk5V1mOPu8zRXsdiIw1Yr6yoi+PcDiDhLu9LNq3nsMddtremhLUG2cQeysf+zQ2bBoqD2SqtQsD4GzOlVbhL2bMFhu9spCMn8IGL95Y+0hX2GHbcXTzwhKO6JTlGjDbSylrmXJecRfCF1KNYd5d9pKsQRzVkX4x5vl8H9YIrznK/dDU9iFV3eUG6AvVMUlb6XmlVLeKGsywMwDyV/Vh1l6bSFainnYbaY6SVtUC5K+7SQbqansSau+wlrX4qh2uovrO0sqbp6oKzeKxhPYMVd/FgquGHNdT36+KOEY47S1BjTFvHirt4MNB9Iw31v/bpPkvVbQtm5Y1wUWVWzLtLH/uUsK/brqU3XyoeuwN/Z5ydtnSJAxwu/0hi0lX0LFuZkvSvvZXPu9i7maHP1vB5l/ez2UDU4XtLkEKBOInOwNJcLwfOjfCuRlV6S6urSXNHneUo6er5hApWaVhVO5KYu+jte2smra4WOznoLEqJREMoYqqGVX2wNmJvjer84IVVPMqc7JizrAxIRAPnuVPDqj5ZG/F/GlV630cdZaJj7jJYumo+QWfFnm/WRpQox1GOEeM53+zqWOOQs3wiXTGfcLCWVX20NqKTVsX+Ka2uEurJOnQlKLHYnKWflk19tjZiD63KXSutrhJDHXGWp6Sr5Qu217KpD6On6r0Yj5NWV4krHHCX9tKV8gFdtCw6yZ9rI+7QqqQf0pYW8YXNznKjdJV8QEdNm/o0M04xn2pV8xBphRWottVZ7vBr07pIG02b+vhNUHdZ3FBphRWw6w3m+oDlV3OGFppWVU0G6VG6aVZ3J2mFFbD+BnOJl/b2eZgqrQUvfnkDzsl+ml3J+yvJrL3BnEOFdAV8QmN+0ny0DQTnaXYo7wdYMvsGc6IXNyp5lCrmatl2kpfXHuvxqGa3Gi6tcF4u1azRdEb5PgqOm7RitZZ9f/PV6sM8lGgntPH6bph/KtThacaxNzVU+HMeQJAO2vftammV7aWcOZoGOFNa5Zy8kVf/ddIq+pbttJ0lgEnVKzVHOWJcIa1yDubn1f5DaRV9Sh9tZwnoem79lGm3efYxJr/uX3EqnX2z2tor7KbdR0ZJq+wc+s+kT3oyZkyRRg3uYYi0ur5hX+3+4YP9klbQz5MyhYbSSmdQplWDR6TV9QljtPvGKdIqO08vbaN8QxNppdNopqW/HxaPShPV2oMbl7OllXaHAdqG2UwXaaVT2EZL+17S6nqeCiZr94kJ0kq7xzBt48QcD4mng97oTbjqODcdWKfdGy6TVtpdDjXhMJd5ZpxMx93bSSvrcXYx0RP8sfvWVvY3YaZJHnmLOVb5ITJgs822M8pEL7hJWmkZBpkwlTdmcC9U0nQFzaUV9TRF/CV0Fh36mnIY+V2XKsHhFlAlraanqeZzE23vw6AVdtLdlMNcJzxb/oqSlrtJG9fDDDHV7gUwz5KPbUwZ7n3R/YgDFbVsK21cTxLlMlNtPlJacW/Qmo2mzNdTUOdXlTRcQCua0YRGNAx3uyRopRnwpFb2lVbcOzTlZ1MmPE9sB51enM4YMZZJG9kTDDbVzjEGSCvuLSpM7n+fIzbf/zdNTcNIyMVcYtJZfBwMySlKedmkMU8XefFvoqnlf6QNLEx3FppsX4+nNJIiYmocPkaML+kooO9oLR1vkTavIEWcb7pl/ZUyy2WONGnWGGNcXyJTxHoN/QpoSWAa22kGQKqX+3yU/UcIc1OXMWJ84PrArU6ege2kDStCEeNMt+dZ0sr7g2p+NG1ityPIvKmsmVeWh7rJtswz3ZLDpJX3D6U8YdrMk11d1qiaSuECaZO6Til/Nt2GhXovtsAFFox9rot5CW9W0khiKEISMzuaauXzMIK0GQ6wYHL3tpNVKWkTmICkCnTSSuadLvd4MpiJL9BLsZYuX7s0vXVSXk1+lzaka5SbngyIy5HSFfA3jXnKkvkfdiGLSnFeLV6UNqNLHGSprVZ4LCKDT/mTpUaIcYHjoZf2zKtDP2kjOs6OJpdO1sqdLr5vBpwa0wsoauVghwdy8yeu9Xleq5x05SWL7SO/5S9QNNBe0pgusxxOtJQ/9sDF0kZ0hA5MtNgyv9JJuhJBJP8jTz6ZTB8H9csfTunJgD1wVHOX5Ta5JdwJ5BQteMty83zNIMcezDqwNc/VZ9NC2og20ZTrLbdFjP2lqxFsIpxhQyMtZ7hDMyGVCvt2ekgb0TJtbHGViWHwDzfoyTIbGivGMY48GpXwZN4r+3kjbXf+ZYv1/WwDn1HM2bY0WYyzHMhDHOHqPFf9u7QBTdZrd4uDxbXyWBgI12068I5NLnOFA+Hzcidf2EnaeNqUcDhrbbJ3uNZYCDORlo3lcXayeQvzPjmu5q+xoNam90JmysMeCdtboFRyv21NGWOCrRvMevEOHzODOfzC8qSdl89KG02ZEobxvo323Uu6QiFm8sXkkukc7GiO9ohPNorV2DL6VS/jfHZPDTAlXGxr08a4j14+6db204gjLeyCNJKnaS1dqZBUutowhZkuZxdYwolG7MN/bbbhCnaRrlaIMbuajjmSXT7gONoF/k7ThAN53XbbxRhTUBvjfEeEAx1o9Bgx/sZOAVvxFacph/OeIxa7K9xE7AcacKJDLhPjdY50YcOZO1bqxpkmQ+3mlxfpKl3BEHUquNwxl4mxmsvp6dOQcVE6cLRiBgFzMjUAq+IKkFbc62CniBHjWcayowPLaJwgQkuG86jDFvmMvtIVDTFPF8VMX9ZkE49wNN0ok65uBhGq2JmzHXmNT5c5YVqJINCJ+1zoLHFZwd0cTo3woECEJvThVF5wrd5LGCrdzO4YtjBoyVn8xdUr/syrzGAOC1jCSjYSc/RqERrSgg5sTz8Gu5wPZTrn8p7D9fMIheIuABUcz91iV/+ej5nBLH5kEb+zwVL3ilJKOY1pRkva0IdBYmucn+IaZgpdW4BCcheAEkbwL0/ESfyDpSxjOcv5nd9ZySpWs5q1rGUd69lMCaWUUkpDGlJGGWWU04oubEc3adUTXMdd/CatRIjTRNmTWa491QdTTvbJeGCITezIP8U7nR/lew7wxN05xHXKOZSZ4h3QP/IXtpFushBpOloMg10I8jqDw3tKSC3FDHZlKs9/soXTAhMbLcRWWnB63sB6hST307Pgxk5DtIjQibP5Vbyryso/6OfTJaQhIrTiaD4S77buy7XsEG7pCjFHE/bjOfEu7IZs4iK6ho9eIdYpZVcbYs17VZ7lCFsDRoWEAFHacDAPiHdvu+RtxlITPniFOE1z9uJmVot3eHPyDefRI4z6ZYbwWdUKTdiBfTmRjtKKKLCEp3mTL/mFP6RV8S+hu9hBQ6rZlp3Zi32kVUnjd55iMl/yMxukVQkCobvYTSNa043+DGOQkAbzeJtP+ZYfWch6aXMEi9BdnCNCBW1pS3tq6EZPB/c4/phwkPksZi1bpSseXEJ3cZMiymhCc1rTkS7UUEkllVTRVCkoxjpWsYDZzOMnfmUxy1nJWjayWbpahUPoLl4hQoQoUYooopgom9nCFrayNbGKLcQD/D/e1hj2nGylGAAAACV0RVh0ZGF0ZTpjcmVhdGUAMjAxOS0wMS0wOVQwMzoyMjo0MyswODowME/OqjMAAAAldEVYdGRhdGU6bW9kaWZ5ADIwMTktMDEtMDlUMDM6MjI6NDMrMDg6MDA+kxKPAAAAQ3RFWHRzb2Z0d2FyZQAvdXNyL2xvY2FsL2ltYWdlbWFnaWNrL3NoYXJlL2RvYy9JbWFnZU1hZ2ljay03Ly9pbmRleC5odG1svbV5CgAAAGN0RVh0c3ZnOmNvbW1lbnQAIEdlbmVyYXRvcjogQWRvYmUgSWxsdXN0cmF0b3IgMTYuMC4wLCBTVkcgRXhwb3J0IFBsdWctSW4gLiBTVkcgVmVyc2lvbjogNi4wMCBCdWlsZCAwKSAgcgt1lgAAABh0RVh0VGh1bWI6OkRvY3VtZW50OjpQYWdlcwAxp/+7LwAAABh0RVh0VGh1bWI6OkltYWdlOjpIZWlnaHQANDA35z78eAAAABd0RVh0VGh1bWI6OkltYWdlOjpXaWR0aAA0MDd0z6wlAAAAGXRFWHRUaHVtYjo6TWltZXR5cGUAaW1hZ2UvcG5nP7JWTgAAABd0RVh0VGh1bWI6Ok1UaW1lADE1NDY5NzUzNjOz/E3pAAAAEnRFWHRUaHVtYjo6U2l6ZQAxNDU3M0IgH8GNAAAAYnRFWHRUaHVtYjo6VVJJAGZpbGU6Ly8vaG9tZS93d3dyb290L25ld3NpdGUvd3d3LmVhc3lpY29uLm5ldC9jZG4taW1nLmVhc3lpY29uLmNuL2ZpbGVzLzExNS8xMTU5MTkyLnBuZy+ab4gAAAAASUVORK5CYII=;" vertex="1" parent="1">
          <mxGeometry x="401.5" y="270" width="110" height="110" as="geometry" />
        </mxCell>
      </root>
    </mxGraphModel>
  </diagram>
</mxfile>
